<svg xmlns="http://www.w3.org/2000/svg" viewBox="0 -14 6010 728" width="601" height="72.8"><title>TICKETICK</title><g><path fill="#2A2C30" d="M0 129H188V700H331V129H520V0H0Z M713 0V700H858V0Z M1236 350Q1236 280 1267.5 229.0Q1299 178 1350.0 150.5Q1401 123 1461 123Q1511 123 1550.0 136.0Q1589 149 1620.5 171.0Q1652 193 1675 219V58Q1632 24 1581.5 5.0Q1531 -14 1454 -14Q1374 -14 1305.5 12.0Q1237 38 1186.5 87.0Q1136 136 1108.5 202.5Q1081 269 1081 350Q1081 431 1108.5 497.5Q1136 564 1186.5 613.0Q1237 662 1305.5 688.0Q1374 714 1454 714Q1531 714 1581.5 695.0Q1632 676 1675 642V481Q1652 507 1620.5 529.0Q1589 551 1550.0 564.0Q1511 577 1461 577Q1401 577 1350.0 549.5Q1299 522 1267.5 470.5Q1236 419 1236 350Z M1929 0V700H2076V383L2336 700H2510L2205 328L2495 0H2325L2076 284V0Z M3500 129H3688V700H3831V129H4020V0H3500Z M4213 0V700H4358V0Z M4736 350Q4736 280 4767.5 229.0Q4799 178 4850.0 150.5Q4901 123 4961 123Q5011 123 5050.0 136.0Q5089 149 5120.5 171.0Q5152 193 5175 219V58Q5132 24 5081.5 5.0Q5031 -14 4954 -14Q4874 -14 4805.5 12.0Q4737 38 4686.5 87.0Q4636 136 4608.5 202.5Q4581 269 4581 350Q4581 431 4608.5 497.5Q4636 564 4686.5 613.0Q4737 662 4805.5 688.0Q4874 714 4954 714Q5031 714 5081.5 695.0Q5132 676 5175 642V481Q5152 507 5120.5 529.0Q5089 551 5050.0 564.0Q5011 577 4961 577Q4901 577 4850.0 549.5Q4799 522 4767.5 470.5Q4736 419 4736 350Z M5429 0V700H5576V383L5836 700H6010L5705 328L5995 0H5825L5576 284V0Z"/><rect x="2710.0" y="0.0" width="590.0" height="145" fill="#6C5CE7"/><rect x="2799.0" y="277.5" width="412.0" height="145" fill="#6C5CE7"/><rect x="2710.0" y="555.0" width="590.0" height="145" fill="#6C5CE7"/></g></svg>